<svg width="64" height="88" viewBox="0 0 64 88" fill="none" xmlns="http://www.w3.org/2000/svg">
<path d="M0.971771 0.364624L16.3024 27.538L16.0649 22.9055L3.35139 0.364624H0.971771ZM7.35701 0.364624L32.0873 23.5458L31.2957 15.6744L50.5322 40.0607L55.4878 87.3646H63.6732V0.364624H7.35701ZM18.5189 18.8568L19.0889 30.4945C18.2973 31.888 15.2733 36.6146 10.0802 37.4244C9.43107 37.5185 8.94026 38.1776 8.94026 38.9685C8.94026 38.9685 8.8136 45.9737 16.1757 54.6172L21.6696 44.1283C20.5613 42.7536 19.453 41.0211 18.2656 38.7237L22.6354 33.0555C22.9203 32.6977 23.0312 32.227 22.9678 31.7374L21.1313 18.5179C20.7038 16.4088 18.4556 17.1055 18.5189 18.8568ZM7.46784 23.9412C6.01125 23.9412 4.79215 24.6568 4.17468 25.8809C3.05058 28.1029 4.15885 31.3607 6.67621 33.1497C9.19358 34.9386 12.1384 34.5432 13.2467 32.3023C14.355 30.0614 13.2309 26.8224 10.7293 25.0523C9.70022 24.3367 8.56028 23.9412 7.46784 23.9412ZM32.0873 38.2906L25.3427 44.4484L23.427 59.5322C25.3902 60.1159 27.4484 60.2854 29.4908 59.9464L33.0531 59.3627L40.3202 68.8536C40.6211 69.2302 41.0485 69.4185 41.476 69.3432L46.0674 68.59C47.8407 67.9685 47.2074 65.4828 45.8458 65.464L42.4576 65.5958L37.6129 53.1484C37.4387 52.7341 37.1379 52.4328 36.7738 52.301L30.6466 50.1919L34.2247 46.5387L42.5051 50.0789C43.2493 50.3614 43.9775 49.8718 44.215 49.0809L45.8774 42.6783C46.1466 40.5503 44.025 40.1172 43.4234 41.5484L42.141 44.7685L33.6073 38.2153C33.1006 37.8763 32.5307 37.9328 32.0873 38.2906ZM22.0654 49.3257L18.2181 56.651C19.0572 57.3666 19.9597 57.988 20.8938 58.4776L22.0654 49.3257ZM25.0736 63.3172L30.0608 87.3646H32.0873L27.1159 63.3737C26.4352 63.3925 25.7544 63.3737 25.0736 63.3172Z" fill="#5E617E"/>
</svg>
