<svg width="81" height="87" viewBox="0 0 81 87" fill="none" xmlns="http://www.w3.org/2000/svg">
<g clip-path="url(#clip0_7_243)">
<path d="M42.6547 76.125L10.005 40.6362V47.8862C10.005 49.8075 10.7054 51.6562 11.9727 52.9975L37.9523 81.2362C40.5536 84.0637 44.7891 84.0637 47.3904 81.2362L68.1007 58.725C70.702 55.8975 70.702 51.2937 68.1007 48.4662L42.6547 76.125Z" fill="#5E617E"/>
<path d="M37.9523 63.1112C39.253 64.525 40.9538 65.25 42.6547 65.25C44.3555 65.25 46.0564 64.525 47.357 63.1112L68.0674 40.6C70.6687 37.7725 70.6687 33.1688 68.0674 30.3412L42.0877 2.1025C40.8538 0.76125 39.1529 0 37.3854 0H16.675C13.0065 0 10.005 3.2625 10.005 7.25V29.7612C10.005 31.6825 10.7054 33.5312 11.9727 34.8725L37.9523 63.1112ZM16.675 7.25H37.3854L63.365 35.4888L42.6547 58L16.675 29.7612V7.25Z" fill="#5E617E"/>
<path d="M24.1788 19.9375C26.4811 19.9375 28.3475 17.9088 28.3475 15.4062C28.3475 12.9037 26.4811 10.875 24.1788 10.875C21.8764 10.875 20.01 12.9037 20.01 15.4062C20.01 17.9088 21.8764 19.9375 24.1788 19.9375Z" fill="#5E617E"/>
</g>
<defs>
<clipPath id="clip0_7_243">
<rect width="80.04" height="87" fill="white"/>
</clipPath>
</defs>
</svg>
