<svg width="78" height="87" viewBox="0 0 78 87" fill="none" xmlns="http://www.w3.org/2000/svg">
<path d="M0 87C0 78.21 3.12861 69.7799 8.69756 63.5645C14.2665 57.349 21.8196 53.8571 29.6953 53.8571C37.571 53.8571 45.1241 57.349 50.6931 63.5645C56.262 69.7799 59.3906 78.21 59.3906 87H51.9668C51.9668 80.4075 49.6204 74.085 45.4436 69.4233C41.2669 64.7617 35.6021 62.1429 29.6953 62.1429C23.7886 62.1429 18.1237 64.7617 13.947 69.4233C9.77028 74.085 7.42383 80.4075 7.42383 87H0ZM29.6953 49.7143C17.3903 49.7143 7.42383 38.5907 7.42383 24.8571C7.42383 11.1236 17.3903 0 29.6953 0C42.0003 0 51.9668 11.1236 51.9668 24.8571C51.9668 38.5907 42.0003 49.7143 29.6953 49.7143ZM29.6953 41.4286C37.8987 41.4286 44.543 34.0129 44.543 24.8571C44.543 15.7014 37.8987 8.28571 29.6953 8.28571C21.492 8.28571 14.8477 15.7014 14.8477 24.8571C14.8477 34.0129 21.492 41.4286 29.6953 41.4286ZM60.4448 56.7696C65.6613 59.3917 70.0883 63.6394 73.1937 69.0022C76.2991 74.365 77.9508 80.6147 77.9502 87H70.5264C70.5272 82.2108 69.2887 77.5232 66.9596 73.5008C64.6305 69.4785 61.31 66.2926 57.3973 64.3261L60.4448 56.7696ZM57.891 9.99671C61.6309 11.7172 64.8285 14.6389 67.0781 18.3911C69.3277 22.1433 70.5279 26.5567 70.5264 31.0714C70.528 36.7568 68.6248 42.2374 65.1907 46.4366C61.7566 50.6358 57.0398 53.2501 51.9668 53.766V45.4264C54.7171 44.9868 57.2687 43.5746 59.247 41.3973C61.2253 39.22 62.5261 36.3922 62.9584 33.329C63.3907 30.2658 62.9317 27.1287 61.6489 24.378C60.3661 21.6274 58.327 19.4082 55.8309 18.0463L57.891 9.99671Z" fill="#5E617E"/>
</svg>
