<svg width="78" height="88" viewBox="0 0 78 88" fill="none" xmlns="http://www.w3.org/2000/svg">
<path d="M11.0097 74.9239C7.56919 71.0839 4.87334 66.6466 2.92217 61.612C0.971003 56.5773 -0.00305108 51.372 7.179e-06 45.9961C7.179e-06 40.6201 0.917483 35.309 2.75244 30.0628C4.58739 24.8165 7.56919 19.8877 11.6978 15.2763C14.3738 12.2897 17.6813 9.72967 21.6203 7.59635C25.5594 5.46304 30.2232 3.77857 35.6119 2.54295C41.0005 1.30392 47.1552 0.556405 54.0761 0.300407C60.9969 0.0444088 68.7374 0.343072 77.2974 1.1964C77.909 10.2417 78.1002 18.5616 77.8708 26.1562C77.6415 33.7508 77.0099 40.5996 75.9762 46.7026C74.9456 52.8022 73.4929 58.1338 71.6182 62.6974C69.7435 67.261 67.4315 71.0805 64.6821 74.1559C60.6299 78.6785 56.33 81.986 51.7824 84.0784C47.2348 86.1707 42.5893 87.2152 37.8459 87.2118C32.8762 87.2118 28.0213 86.1229 23.281 83.9452C18.5407 81.7676 14.4503 78.7604 11.0097 74.9239ZM23.8544 72.8759C26.0716 74.3265 28.347 75.3727 30.6804 76.0144C33.0139 76.6561 35.4024 76.9753 37.8459 76.9719C41.3629 76.9719 44.8417 76.1834 48.2822 74.6064C51.7227 73.0295 55.0104 70.49 58.1451 66.9879C59.5213 65.4519 60.9174 63.2964 62.3334 60.5214C63.7493 57.7464 64.9726 54.1215 66.0033 49.6466C67.0339 45.1649 67.8168 39.7463 68.352 33.3907C68.8872 27.0351 68.9637 19.461 68.5814 10.6683C64.835 10.4977 60.6116 10.4345 55.911 10.4789C51.2105 10.5233 46.5268 10.9277 41.8599 11.6923C37.196 12.4603 32.7616 13.6976 28.5565 15.4043C24.3514 17.111 20.9108 19.4576 18.2349 22.4443C14.7943 26.2842 12.4242 30.0815 11.1244 33.8362C9.82465 37.5908 9.17477 41.2174 9.17477 44.7161C9.17477 49.7507 10.0357 54.1675 11.7575 57.9666C13.4793 61.7656 14.9885 64.4314 16.2852 65.9639C19.4964 59.1373 23.7397 52.5872 29.0152 46.3135C34.2907 40.0399 40.4454 34.8994 47.4794 30.8922C41.9746 36.2681 37.1777 42.349 33.0888 49.1346C28.9999 55.9203 25.9218 63.834 23.8544 72.8759Z" fill="#5E617E"/>
</svg>
