<svg width="57" height="88" viewBox="0 0 57 88" fill="none" xmlns="http://www.w3.org/2000/svg">
<path d="M10.6296 59.915C10.6296 57.74 11.324 55.8787 12.713 54.3312C14.1019 52.7836 15.7696 52.0085 17.716 52.0059C19.6647 52.0059 21.3336 52.781 22.7225 54.3312C24.1114 55.8813 24.8047 57.7426 24.8023 59.915C24.8023 62.09 24.1091 63.9526 22.7225 65.5028C21.3359 67.0529 19.6671 67.8267 17.716 67.8241C15.7672 67.8241 14.0995 67.0503 12.713 65.5028C11.3264 63.9552 10.6319 62.0926 10.6296 59.915ZM28.3455 52.0059H49.6047C51.5534 52.0059 53.2223 52.781 54.6112 54.3312C56.0001 55.8813 56.6934 57.7426 56.6911 59.915V87.5968H49.6047V79.6877H7.08638V87.5968H0V48.0513H7.08638V71.7786H28.3455V52.0059ZM41.6325 48.0513L31.1801 26.8945L21.7906 37.3741L22.6764 44.0968L20.019 47.0627L15.8558 38.3627L8.06076 33.6173L10.7182 30.6513L16.7416 31.5411L26.131 21.0616L7.08638 9.49453L10.4524 5.73771L33.8375 12.4604L43.4041 1.78317C44.1127 0.992256 44.969 0.596802 45.9729 0.596802C46.9768 0.596802 47.8331 0.992256 48.5417 1.78317C49.2504 2.57407 49.6047 3.52976 49.6047 4.65021C49.6047 5.77067 49.2504 6.72635 48.5417 7.51726L38.9751 18.1945L44.9985 44.2945L41.6325 48.0513Z" fill="#5E617E"/>
</svg>
