<svg width="68" height="88" viewBox="0 0 68 88" fill="none" xmlns="http://www.w3.org/2000/svg">
<path d="M27.5368 59.0896H40.246V48.2146H50.8371V35.1646H40.246V24.2896H27.5368V35.1646H16.9457V48.2146H27.5368V59.0896ZM33.8914 87.3646C24.077 84.8271 15.9741 79.0445 9.5828 70.0168C3.19144 60.9891 -0.00282241 50.9667 1.87121e-06 39.9496V13.4146L33.8914 0.364624L67.7828 13.4146V39.9496C67.7828 50.9696 64.5885 60.9935 58.2 70.0212C51.8115 79.0489 43.7086 84.83 33.8914 87.3646ZM33.8914 78.2296C41.2345 75.8371 47.3067 71.0521 52.108 63.8746C56.9093 56.6971 59.3099 48.7221 59.3099 39.9496V19.3959L33.8914 9.60837L8.47285 19.3959V39.9496C8.47285 48.7221 10.8735 56.6971 15.6748 63.8746C20.4761 71.0521 26.5483 75.8371 33.8914 78.2296Z" fill="#5E617E"/>
</svg>
