<svg width="73" height="88" viewBox="0 0 73 88" fill="none" xmlns="http://www.w3.org/2000/svg">
<path d="M0 87.2118V79.1188H3.62559C5.55924 79.1188 7.43246 78.7815 9.24526 78.1071C11.0581 77.4327 12.8104 76.4211 14.5024 75.0722C16.1943 76.4211 17.9467 77.4165 19.7595 78.0586C21.5723 78.7006 23.4455 79.0203 25.3791 79.0176C27.3128 79.0176 29.2017 78.6966 31.0459 78.0545C32.8901 77.4125 34.6268 76.4184 36.2559 75.0722C37.9478 76.4211 39.7002 77.4165 41.513 78.0586C43.3258 78.7006 45.199 79.0203 47.1327 79.0176C49.0663 79.0176 50.9553 78.6966 52.7995 78.0545C54.6437 77.4125 56.3804 76.4184 58.0094 75.0722C59.641 76.4211 61.3788 77.4327 63.223 78.1071C65.0673 78.7815 66.955 79.1188 68.8862 79.1188H72.5118V87.2118H68.8862C67.013 87.2118 65.17 86.9595 63.3572 86.4551C61.5444 85.9506 59.7618 85.1912 58.0094 84.1769C56.2571 85.1885 54.4745 85.9479 52.6617 86.4551C50.8489 86.9622 49.0059 87.2145 47.1327 87.2118C45.2595 87.2118 43.4164 86.9595 41.6037 86.4551C39.7909 85.9506 38.0083 85.1912 36.2559 84.1769C34.5035 85.1885 32.721 85.9479 30.9082 86.4551C29.0954 86.9622 27.2524 87.2145 25.3791 87.2118C23.5059 87.2118 21.6629 86.9595 19.8501 86.4551C18.0373 85.9506 16.2547 85.1912 14.5024 84.1769C12.75 85.1885 10.9674 85.9479 9.15462 86.4551C7.34182 86.9622 5.49881 87.2145 3.62559 87.2118H0ZM23.5663 10.3281L43.6884 14.4757C44.5343 14.6106 45.3501 14.9816 46.1356 15.5885C46.9212 16.1955 47.5859 17.0385 48.1297 18.1176L51.3021 24.3897C52.8732 27.4246 55.0486 29.8862 57.8282 31.7746C60.6078 33.6629 63.6895 34.6071 67.0734 34.6071V42.7002C62.3602 42.7002 58.0699 41.385 54.2026 38.7548C50.3353 36.1246 47.2837 32.685 45.048 28.4362L36.8904 34.6071L50.7583 46.7467V62.3257C51.7251 63.0676 52.6617 63.8432 53.5681 64.6525C54.4745 65.4618 55.3507 66.2374 56.1967 66.9792C54.9277 68.1932 53.5379 69.1711 52.0272 69.9129C50.5166 70.6548 48.885 71.0257 47.1327 71.0257C44.9573 71.0257 42.933 70.4525 41.0598 69.306C39.1866 68.1595 37.5853 66.7094 36.2559 64.956C34.9265 66.7094 33.3252 68.1595 31.452 69.306C29.5788 70.4525 27.5545 71.0257 25.3791 71.0257C24.7749 71.0257 24.1851 70.9745 23.6098 70.872C23.0346 70.7694 22.4762 70.6184 21.9348 70.4188C16.7381 66.4397 12.3874 62.4269 8.8827 58.3804C5.37796 54.3339 3.62559 50.8269 3.62559 47.8595C3.62559 45.7688 4.35071 44.3862 5.80094 43.7118C7.25118 43.0374 8.76184 42.7002 10.3329 42.7002C12.0853 42.7002 14.1096 42.9875 16.4058 43.5621C18.702 44.1367 21.1493 44.9622 23.7476 46.0385L21.1191 28.942L32.449 20.4443C32.2678 20.4443 31.8303 20.3607 31.1366 20.1935C30.4429 20.0262 29.6718 19.8576 28.8234 19.6876C27.9751 19.5177 27.2052 19.3491 26.5139 19.1818C25.8178 19.0119 25.3791 18.9269 25.1979 18.9269L14.9556 26.7164L10.8768 20.0397L23.5663 10.3281ZM30.0924 39.0583L31.7239 49.7815C33.3554 50.6583 35.3797 51.8223 37.7968 53.2737C40.2138 54.725 42.1173 55.9215 43.5071 56.8629V50.7932L30.0924 39.0583ZM54.3839 16.3978C52.3898 16.3978 50.6833 15.6061 49.2645 14.0225C47.8457 12.439 47.1351 10.5331 47.1327 8.30481C47.1327 6.07923 47.8433 4.17467 49.2645 2.59114C50.6858 1.00761 52.3922 0.21449 54.3839 0.211792C56.3779 0.211792 58.0856 1.00491 59.5068 2.59114C60.9281 4.17737 61.6375 6.08193 61.635 8.30481C61.635 10.5304 60.9256 12.4363 59.5068 14.0225C58.088 15.6088 56.3804 16.4005 54.3839 16.3978Z" fill="#5E617E"/>
</svg>
