<svg width="63" height="88" viewBox="0 0 63 88" fill="none" xmlns="http://www.w3.org/2000/svg">
<path fill-rule="evenodd" clip-rule="evenodd" d="M33.937 1.63826L49.5273 19.0384C50.1182 19.6981 50.5035 20.5523 50.6263 21.4749C50.7491 22.3976 50.6029 23.3399 50.2093 24.1628C49.2466 26.1769 47.7422 27.5341 46.2728 28.4563L57.3224 40.7887C58.053 41.6044 58.4635 42.7107 58.4635 43.8642C58.4635 45.0176 58.053 46.1239 57.3224 46.9396C55.4593 49.019 53.1052 50.2892 50.9538 51.0809L61.2199 62.5389C61.6898 63.0635 62.0317 63.7136 62.2131 64.4273C62.3945 65.1409 62.4093 65.8945 62.2562 66.6164C62.1031 67.3382 61.7871 68.0044 61.3383 68.5516C60.8895 69.0988 60.3228 69.5087 59.6921 69.7426C56.995 70.7387 54.216 71.4348 51.4332 72.0568C49.3207 72.5266 46.8535 72.9964 44.1058 73.3879L46.5729 81.64C46.7681 82.2939 46.8212 82.9903 46.7279 83.6716C46.6346 84.353 46.3976 84.9999 46.0364 85.5589C45.6752 86.118 45.2001 86.5733 44.6503 86.8872C44.1005 87.2012 43.4917 87.3648 42.8741 87.3646H19.4888C18.8712 87.3648 18.2625 87.2012 17.7127 86.8872C17.1629 86.5733 16.6878 86.118 16.3266 85.5589C15.9653 84.9999 15.7283 84.353 15.635 83.6716C15.5418 82.9903 15.5949 82.2939 15.79 81.64L18.2572 73.3879C15.8014 73.041 13.3574 72.597 10.9298 72.0568C8.84559 71.5929 6.77722 71.0444 4.72879 70.4125L2.66308 69.7426C2.03292 69.5077 1.46701 69.097 1.01908 68.5494C0.571155 68.0018 0.256085 67.3354 0.103789 66.6137C-0.0485078 65.8919 -0.0329743 65.1387 0.148915 64.4256C0.330804 63.7124 0.67301 63.0629 1.14304 62.5389L11.4092 51.0809C9.25774 50.2935 6.90362 49.019 5.04059 46.9396C4.30991 46.1239 3.89944 45.0176 3.89944 43.8642C3.89944 42.7107 4.30991 41.6044 5.04059 40.7887L16.0902 28.4563C14.6208 27.5341 13.1163 26.1769 12.1536 24.1628C11.76 23.3399 11.6138 22.3976 11.7366 21.4749C11.8595 20.5523 12.2448 19.6981 12.8357 19.0384L28.4259 1.63826C29.1568 0.82275 30.148 0.364624 31.1815 0.364624C32.215 0.364624 33.2061 0.82275 33.937 1.63826ZM36.1275 74.1753C33.3715 74.3288 30.6109 74.3549 27.853 74.2536L26.2355 74.1753L24.8947 78.6645H37.4682L36.1275 74.1753ZM31.1815 10.8647L21.5467 21.618L21.9365 21.7442L22.6653 21.9312L23.741 22.1313C25.2338 22.3053 26.5356 23.3928 27.054 24.9806C27.3061 25.7586 27.3543 26.6008 27.1927 27.4083C27.0312 28.2157 26.6667 28.955 26.1419 29.5395L14.1492 42.9246C15.7978 43.4901 17.6765 43.8642 19.4966 43.8642C20.2667 43.8661 21.019 44.1225 21.6586 44.6012C22.2982 45.0798 22.7964 45.7593 23.0904 46.5537C23.3844 47.3481 23.4609 48.2218 23.3103 49.0647C23.1597 49.9076 22.7888 50.6819 22.2444 51.2897L11.4871 63.3002L13.4905 63.7482C18.0818 64.7139 24.236 65.6144 31.1815 65.6144C36.7482 65.6024 42.3035 65.0523 47.785 63.9701L49.9053 63.522L50.8797 63.3002L40.1186 51.294C39.6015 50.7169 39.2403 49.9891 39.0762 49.1937C38.9122 48.3983 38.952 47.5674 39.1911 46.7961C39.4301 46.0248 39.8588 45.344 40.428 44.8317C40.9973 44.3194 41.6842 43.9962 42.4103 43.899L42.8702 43.8642C44.6816 43.8254 46.4795 43.5092 48.2138 42.9246L36.221 29.5395C35.7275 28.9889 35.3754 28.3005 35.2016 27.5462C35.0279 26.7919 35.0387 25.9994 35.233 25.2514C35.4273 24.5034 35.798 23.8273 36.3064 23.2938C36.8148 22.7603 37.4421 22.3889 38.123 22.2183L39.3819 22.0008L40.0523 21.8442C40.294 21.7833 40.5551 21.7094 40.8162 21.618L31.1815 10.8647Z" fill="#5E617E"/>
</svg>
