<svg width="24" height="24" viewBox="0 0 24 24" fill="none" xmlns="http://www.w3.org/2000/svg">
<g opacity="0.4">
<path d="M11.9062 14.6249C12.6024 14.6249 13.2701 14.3484 13.7624 13.8561C14.2547 13.3638 14.5312 12.6961 14.5312 11.9999C14.5312 11.9231 14.5277 11.8469 14.5212 11.7717L11.678 14.6149C11.7532 14.6214 11.8291 14.6249 11.9062 14.6249ZM20.595 3.88026L19.5938 2.87995C19.5586 2.84481 19.5109 2.82507 19.4612 2.82507C19.4115 2.82507 19.3638 2.84481 19.3287 2.87995L16.7665 5.44284C15.353 4.72049 13.7642 4.35932 12 4.35932C7.49531 4.35932 4.13438 6.70542 1.91719 11.3976C1.82807 11.5863 1.78185 11.7924 1.78185 12.0011C1.78185 12.2098 1.82807 12.4159 1.91719 12.6046C2.80313 14.4707 3.86992 15.9664 5.11758 17.0917L2.63812 19.5703C2.60299 19.6054 2.58325 19.6531 2.58325 19.7028C2.58325 19.7525 2.60299 19.8002 2.63812 19.8353L3.63867 20.8359C3.67383 20.871 3.7215 20.8908 3.77121 20.8908C3.82092 20.8908 3.86859 20.871 3.90375 20.8359L20.595 4.14557C20.6124 4.12816 20.6263 4.10748 20.6357 4.08472C20.6451 4.06196 20.65 4.03756 20.65 4.01292C20.65 3.98828 20.6451 3.96388 20.6357 3.94111C20.6263 3.91835 20.6124 3.89767 20.595 3.88026ZM7.78125 11.9999C7.78119 11.2875 7.96567 10.5871 8.31672 9.96711C8.66778 9.34711 9.17344 8.82861 9.78444 8.46212C10.3954 8.09564 11.091 7.89366 11.8032 7.87586C12.5155 7.85806 13.2202 8.02506 13.8488 8.36057L12.7092 9.5001C12.2497 9.35295 11.7584 9.33523 11.2895 9.44888C10.8205 9.56253 10.3919 9.80317 10.0507 10.1444C9.70947 10.4856 9.46884 10.9142 9.35518 11.3832C9.24153 11.8521 9.25925 12.3434 9.40641 12.8029L8.26687 13.9424C7.94709 13.345 7.78025 12.6776 7.78125 11.9999Z" fill="#333333"/>
<path d="M22.0828 11.3953C21.2578 9.65779 20.2759 8.24099 19.137 7.1449L15.7587 10.5234C16.0434 11.2678 16.1066 12.0788 15.9404 12.8583C15.7743 13.6378 15.3859 14.3525 14.8224 14.9161C14.2588 15.4797 13.5441 15.868 12.7645 16.0341C11.985 16.2003 11.1741 16.1372 10.4297 15.8524L7.56422 18.7179C8.89359 19.333 10.3722 19.6406 12 19.6406C16.5047 19.6406 19.8656 17.2945 22.0828 12.6023C22.1719 12.4136 22.2182 12.2075 22.2182 11.9988C22.2182 11.7901 22.1719 11.584 22.0828 11.3953Z" fill="#333333"/>
</g>
</svg>
