<svg width="25" height="24" viewBox="0 0 25 24" fill="none" xmlns="http://www.w3.org/2000/svg">
<path d="M3.35718 7.42858H21.6429M5.64289 2.85715H19.3572C19.9634 2.85715 20.5448 3.09796 20.9734 3.52662C21.4021 3.95527 21.6429 4.53665 21.6429 5.14286V18.8571C21.6429 19.4634 21.4021 20.0447 20.9734 20.4734C20.5448 20.902 19.9634 21.1429 19.3572 21.1429H5.64289C5.03668 21.1429 4.4553 20.902 4.02665 20.4734C3.59799 20.0447 3.35718 19.4634 3.35718 18.8571V5.14286C3.35718 4.53665 3.59799 3.95527 4.02665 3.52662C4.4553 3.09796 5.03668 2.85715 5.64289 2.85715V2.85715Z" stroke="#333333" stroke-linecap="round" stroke-linejoin="round"/>
<path d="M12.5 13.1429C13.1312 13.1429 13.6429 12.6312 13.6429 12C13.6429 11.3688 13.1312 10.8571 12.5 10.8571C11.8689 10.8571 11.3572 11.3688 11.3572 12C11.3572 12.6312 11.8689 13.1429 12.5 13.1429Z" fill="#333333"/>
<path d="M7.92862 13.1429C8.55981 13.1429 9.07148 12.6312 9.07148 12C9.07148 11.3688 8.55981 10.8571 7.92862 10.8571C7.29744 10.8571 6.78577 11.3688 6.78577 12C6.78577 12.6312 7.29744 13.1429 7.92862 13.1429Z" fill="#333333"/>
<path d="M17.0714 13.1429C17.7026 13.1429 18.2143 12.6312 18.2143 12C18.2143 11.3688 17.7026 10.8571 17.0714 10.8571C16.4403 10.8571 15.9286 11.3688 15.9286 12C15.9286 12.6312 16.4403 13.1429 17.0714 13.1429Z" fill="#333333"/>
<path d="M12.5 17.7143C13.1312 17.7143 13.6429 17.2026 13.6429 16.5714C13.6429 15.9402 13.1312 15.4286 12.5 15.4286C11.8689 15.4286 11.3572 15.9402 11.3572 16.5714C11.3572 17.2026 11.8689 17.7143 12.5 17.7143Z" fill="#333333"/>
<path d="M7.92862 17.7143C8.55981 17.7143 9.07148 17.2026 9.07148 16.5714C9.07148 15.9402 8.55981 15.4286 7.92862 15.4286C7.29744 15.4286 6.78577 15.9402 6.78577 16.5714C6.78577 17.2026 7.29744 17.7143 7.92862 17.7143Z" fill="#333333"/>
<path d="M17.0714 17.7143C17.7026 17.7143 18.2143 17.2026 18.2143 16.5714C18.2143 15.9402 17.7026 15.4286 17.0714 15.4286C16.4403 15.4286 15.9286 15.9402 15.9286 16.5714C15.9286 17.2026 16.4403 17.7143 17.0714 17.7143Z" fill="#333333"/>
</svg>
