<svg width="13" height="13" viewBox="0 0 13 13" fill="none" xmlns="http://www.w3.org/2000/svg">
<path d="M7.93966 6.00005L12.7997 1.14005C12.9089 1.01252 12.9659 0.848467 12.9595 0.680683C12.953 0.512899 12.8834 0.35374 12.7647 0.23501C12.646 0.11628 12.4868 0.0467252 12.319 0.0402444C12.1512 0.0337637 11.9872 0.0908347 11.8597 0.200052L6.99966 5.06005L2.13966 0.193385C2.01212 0.0841679 1.84807 0.0270975 1.68029 0.0335782C1.5125 0.040059 1.35334 0.109614 1.23461 0.228343C1.11589 0.347073 1.04633 0.506232 1.03985 0.674016C1.03337 0.8418 1.09044 1.00585 1.19966 1.13339L6.05966 6.00005L1.19299 10.8601C1.1232 10.9198 1.06652 10.9934 1.02651 11.0761C0.986491 11.1588 0.964004 11.2489 0.960458 11.3407C0.956911 11.4325 0.972382 11.5241 1.0059 11.6096C1.03941 11.6952 1.09025 11.7729 1.15522 11.8378C1.22019 11.9028 1.29789 11.9536 1.38344 11.9871C1.46899 12.0207 1.56055 12.0361 1.65236 12.0326C1.74417 12.029 1.83426 12.0066 1.91697 11.9665C1.99968 11.9265 2.07323 11.8698 2.13299 11.8001L6.99966 6.94005L11.8597 11.8001C11.9872 11.9093 12.1512 11.9663 12.319 11.9599C12.4868 11.9534 12.646 11.8838 12.7647 11.7651C12.8834 11.6464 12.953 11.4872 12.9595 11.3194C12.9659 11.1516 12.9089 10.9876 12.7997 10.8601L7.93966 6.00005Z" fill="#3333337b"/>
</svg>
