<svg width="24" height="24" viewBox="0 0 24 24" fill="none" xmlns="http://www.w3.org/2000/svg">
<path d="M11.9784 23.9971H2.93269C2.78984 24.0025 2.64681 24.0003 2.50421 23.9905C2.28884 23.9734 2.08786 23.8757 1.94149 23.7168C1.79512 23.5579 1.71417 23.3495 1.71485 23.1335C1.71607 22.9167 1.80039 22.7087 1.95044 22.5523C2.10049 22.3959 2.30483 22.303 2.52135 22.2927C2.98089 22.267 3.44151 22.267 3.90105 22.2927C4.2267 22.3118 4.29811 22.187 4.28859 21.888C4.24289 20.4084 4.32763 18.9449 4.83134 17.5309C5.53214 15.5627 6.7357 14.0411 8.67529 13.1737C9.19042 12.9442 9.48655 12.55 9.48179 11.993C9.47703 11.436 9.17042 11.056 8.65815 10.8218C6.21581 9.69918 5.00178 7.66437 4.47998 5.12871C4.28288 4.17653 4.26193 3.20721 4.30002 2.24074C4.31525 1.84368 4.24003 1.64658 3.79346 1.71324C3.5297 1.75227 3.25548 1.7199 2.98506 1.7199C2.13571 1.71609 1.71009 1.43044 1.71866 0.849608C1.72723 0.268777 2.13952 0.00216674 2.95649 0.00216674H21.0413C21.1841 0.00216674 21.3269 -0.00545071 21.4688 0.00787983C21.6855 0.0197526 21.8899 0.112717 22.0412 0.268305C22.1926 0.423893 22.2799 0.630721 22.2858 0.847703C22.2882 0.95953 22.2685 1.07073 22.2278 1.17494C22.1872 1.27914 22.1264 1.3743 22.0489 1.45497C21.9714 1.53564 21.8788 1.60023 21.7763 1.64503C21.6738 1.68984 21.5635 1.71399 21.4517 1.71609C21.0077 1.74231 20.5626 1.74231 20.1186 1.71609C19.7711 1.69229 19.6968 1.82369 19.7073 2.14648C19.753 3.60903 19.6654 5.05634 19.1712 6.457C18.4694 8.4442 17.2601 9.98007 15.2987 10.8475C14.8007 11.0684 14.5188 11.4588 14.5141 11.9901C14.5141 12.5462 14.8045 12.9366 15.3187 13.1727C17.7943 14.3153 19.0236 16.3673 19.533 18.9487C19.7234 19.8894 19.7377 20.8387 19.7044 21.79C19.6911 22.1708 19.773 22.346 20.1881 22.2918C20.4572 22.2724 20.7272 22.2702 20.9965 22.2851C21.8601 22.2851 22.2734 22.5574 22.281 23.1316C22.2886 23.7058 21.8678 23.9971 21.0203 23.9971H11.9784ZM12.007 1.71609C10.1502 1.71609 8.29347 1.72657 6.43766 1.70752C6.07679 1.70752 5.98062 1.80274 5.9949 2.15695C6.02251 2.88537 5.97871 3.61665 6.09012 4.34125C6.431 6.55984 7.35652 8.36041 9.52749 9.34116C10.6406 9.84391 11.2043 10.7989 11.2005 12.0073C11.2005 13.2556 10.5844 14.1973 9.43323 14.7105C8.14683 15.2818 7.27177 16.234 6.6938 17.4861C6.02727 18.9382 5.96729 20.4855 5.99966 22.0471C5.99966 22.287 6.13678 22.2851 6.30626 22.2851C10.0991 22.2851 13.8913 22.2851 17.6829 22.2851C17.9362 22.2851 18.0076 22.2061 18.0029 21.9595C17.9895 21.1825 18.0295 20.4036 17.9076 19.6323C17.5629 17.4337 16.645 15.6389 14.495 14.6658C13.3791 14.1601 12.8059 13.2213 12.8001 12.0158C12.7944 10.7913 13.3714 9.83915 14.5064 9.32687C15.8005 8.74414 16.7079 7.80338 17.2963 6.53508C17.9467 5.13061 18.0248 3.63474 18.0076 2.11982C18.0029 1.77322 17.8953 1.70562 17.5744 1.70847C15.7157 1.72752 13.8628 1.71609 12.007 1.71609Z" fill="#313555"/>
<path d="M11.9943 21.4262C10.6308 21.4262 9.26723 21.4262 7.90466 21.4262C7.15149 21.4262 6.83822 21.0939 6.85726 20.3407C6.93439 17.7774 9.05966 15.6007 11.6458 15.436C14.3052 15.2665 16.679 17.1499 17.0646 19.7399C17.0789 19.8351 17.0999 19.9303 17.1122 20.0255C17.2475 21.0643 16.9285 21.4319 15.8906 21.4319L11.9943 21.4262Z" fill="#313555"/>
<path d="M12.054 5.14392C12.8624 5.14392 13.6727 5.14392 14.4782 5.14392C15.1752 5.14868 15.4914 5.50861 15.418 6.19799C15.3539 6.8349 15.0605 7.4268 14.5925 7.86349C14.1244 8.30018 13.5136 8.5519 12.8738 8.57177C12.2892 8.59082 11.7017 8.59177 11.1161 8.57177C10.4852 8.55014 9.88297 8.30276 9.41902 7.87464C8.95508 7.44652 8.66021 6.86609 8.58806 6.23893C8.49855 5.52479 8.81467 5.15154 9.53548 5.14392C10.3753 5.14392 11.2151 5.14392 12.054 5.14392Z" fill="#313555"/>
</svg>
