<svg width="24" height="24" viewBox="0 0 24 24" fill="none" xmlns="http://www.w3.org/2000/svg">
<g clip-path="url(#clip0_73_80)">
<path d="M5.26599 9.765C5.73387 8.34945 6.63685 7.11781 7.84611 6.2458C9.05536 5.37378 10.5091 4.90594 12 4.909C13.69 4.909 15.218 5.509 16.418 6.491L19.91 3C17.782 1.145 15.055 0 12 0C7.26999 0 3.19799 2.698 1.23999 6.65L5.26599 9.765Z" fill="#EA4335"/>
<path d="M16.04 18.0131C14.95 18.7161 13.566 19.0911 12 19.0911C10.5151 19.0941 9.06683 18.63 7.86027 17.7644C6.6537 16.8988 5.74997 15.6757 5.27703 14.2681L1.23703 17.3351C2.22828 19.3414 3.7623 21.0295 5.66485 22.2076C7.56741 23.3858 9.76224 24.0068 12 24.0001C14.933 24.0001 17.735 22.9571 19.834 21.0001L16.041 18.0131H16.04Z" fill="#34A853"/>
<path d="M19.8338 21C22.0288 18.952 23.4538 15.904 23.4538 12C23.4538 11.29 23.3448 10.527 23.1818 9.81799H11.9998V14.455H18.4358C18.1188 16.014 17.2658 17.221 16.0408 18.013L19.8338 21Z" fill="#4A90E2"/>
<path d="M5.27712 14.268C5.03247 13.5369 4.90819 12.771 4.90912 12C4.90912 11.218 5.03412 10.467 5.26612 9.76503L1.24012 6.65002C0.416494 8.31271 -0.00807994 10.1445 0.000116455 12C0.000116455 13.92 0.445116 15.73 1.23712 17.335L5.27712 14.268Z" fill="#FBBC05"/>
</g>
<defs>
<clipPath id="clip0_73_80">
<rect width="24" height="24" fill="white"/>
</clipPath>
</defs>
</svg>
