<svg width="24" height="24" viewBox="0 0 24 24" fill="none" xmlns="http://www.w3.org/2000/svg">
<g clip-path="url(#clip0_78_460)">
<path d="M7.18362 12.8598C7.46652 12.2086 7.40701 11.9091 6.91116 11.4541C6.29463 10.9074 5.85156 10.1924 5.63657 9.3971C5.57306 9.09624 5.39675 8.83111 5.14385 8.65613C4.22105 7.99864 4.0154 6.86005 4.60833 5.88427C4.70333 5.72668 4.76492 5.59623 4.71272 5.40524C4.22731 3.67701 5.2044 1.66699 7.29323 0.84253C8.49934 0.375116 9.79813 0.196413 11.0857 0.320719C11.855 0.387511 12.4918 0.691205 12.7935 1.48436C12.9346 1.82311 13.1819 2.10693 13.4981 2.29316C14.7445 3.10823 14.9742 3.79076 14.5243 5.21531C14.4731 5.37707 14.4136 5.50543 14.5483 5.6912C15.279 6.69934 15.065 8.01326 14.043 8.74692C13.8733 8.86405 13.7517 9.03865 13.7007 9.23847C13.4435 10.1671 12.9129 10.997 12.1776 11.62C11.8644 11.8903 11.8415 12.8233 12.1202 13.1155C12.2611 13.2627 12.3561 13.1333 12.4146 13.0529C12.996 12.2587 13.803 12.3652 14.5942 12.5311C16.7864 13.0049 18.3418 14.2447 19.0109 16.429C19.6853 18.6321 19.7417 20.9166 19.7594 23.1959C19.7594 23.6655 19.4744 23.7177 19.1018 23.7177C15.6054 23.7121 12.1087 23.7121 8.61167 23.7177C5.98523 23.7177 3.35844 23.7177 0.731311 23.7177C0.0444291 23.7177 -0.00672176 23.6676 0.000585497 22.9663C0.0183317 21.0137 0.122721 19.0704 0.541323 17.1575C1.14783 14.3814 3.25545 12.5655 5.96957 12.4361C6.49987 12.4111 6.49987 12.4111 7.18362 12.8598ZM10.0481 22.9517C11.736 22.9517 13.423 22.9381 15.1099 22.961C15.5275 22.961 15.6433 22.8452 15.6319 22.4392C15.6047 21.3267 15.6225 20.2132 15.6235 19.0996C15.6235 18.8909 15.6078 18.6749 15.8323 18.5507C16.1267 18.3889 16.3824 18.6018 16.3855 19.0454C16.3949 20.2101 16.3981 21.3758 16.3855 22.5405C16.3855 22.8536 16.4711 22.9725 16.7979 22.9579C17.4054 22.935 18.0151 22.9454 18.6237 22.9579C18.8523 22.9579 18.9859 22.9068 18.9775 22.6448C18.9086 20.5419 18.8784 18.4317 18.179 16.4123C17.6445 14.8667 16.5087 13.9389 14.9888 13.4276C14.6892 13.3232 14.5222 13.3837 14.3625 13.6686C13.7278 14.7676 13.0701 15.854 12.4094 16.9373C12.2635 17.1697 12.1881 17.4394 12.1922 17.7137C12.2027 19.0182 12.1995 20.3228 12.1922 21.6263C12.1922 22.241 12.1066 22.3265 11.5043 22.3286C10.3741 22.3286 9.24322 22.3286 8.11164 22.3286C7.44668 22.3286 7.38614 22.2712 7.38092 21.6231C7.38092 20.3708 7.37152 19.1184 7.38092 17.8661C7.39312 17.5198 7.30151 17.1779 7.11786 16.884C6.47795 15.8488 5.84117 14.8104 5.24511 13.7532C5.03633 13.3848 4.82755 13.3743 4.49037 13.5069C2.84833 14.1654 1.77416 15.3238 1.36182 17.0677C0.931739 18.8721 0.834657 20.71 0.764716 22.554C0.752189 22.8911 0.888939 22.9642 1.19167 22.9558C1.86916 22.9391 2.54873 22.935 3.22622 22.9558C3.56235 22.9673 3.67718 22.8682 3.67092 22.5196C3.65108 21.3894 3.66465 20.2591 3.66257 19.1278C3.66257 18.8346 3.68136 18.5173 4.04985 18.5069C4.41834 18.4964 4.44653 18.82 4.44757 19.1122C4.44757 20.208 4.46636 21.3038 4.43922 22.3985C4.42878 22.8222 4.54361 22.9663 4.98622 22.96C6.67316 22.9318 8.36113 22.9517 10.0481 22.9517ZM9.74116 11.7651C9.7944 11.7651 9.91654 11.7578 10.0366 11.7379C11.7371 11.4645 12.5806 10.3134 13.0305 8.78032C13.1192 8.47662 13.2393 8.27938 13.5399 8.12388C14.3562 7.70017 14.4293 6.55845 13.6954 6.05438C13.5253 5.93749 13.4512 5.76634 13.3666 5.59727C13.0608 4.99163 12.6699 4.43285 12.2058 3.93791C12.091 3.81581 11.9605 3.59247 11.7381 3.80642C11.2579 4.27187 10.6598 4.30735 10.0387 4.29901C9.01357 4.28753 7.98533 4.27605 6.97275 4.45972C6.31823 4.57661 5.79524 4.88552 5.70233 5.63693C5.66757 5.8075 5.58034 5.96294 5.45284 6.08151C4.80145 6.79535 4.95908 7.71582 5.82238 8.15623C6.13033 8.31277 6.22741 8.52567 6.29109 8.83667C6.63975 10.5482 8.05527 11.7651 9.74116 11.7651ZM5.39125 4.4305C6.22637 3.6697 7.13351 3.5956 8.03961 3.56221C8.78495 3.5309 9.53238 3.53716 10.2788 3.53299C10.6556 3.53299 10.9991 3.45889 11.2757 3.17294C11.7392 2.69392 11.877 2.68557 12.401 3.07901C12.8812 3.4401 13.2225 3.92121 13.5649 4.40337C13.6464 4.51712 13.6693 4.70184 13.8593 4.71645C14.0942 3.964 14.0086 3.5956 13.3457 3.14372C12.7549 2.74192 12.259 2.29108 11.9887 1.61585C11.8738 1.32781 11.6076 1.19841 11.3321 1.15875C9.59502 0.931238 7.93314 1.12013 6.49569 2.22742C5.84535 2.7294 5.45598 3.4161 5.39125 4.4305ZM13.6746 13.2919C13.353 13.1604 13.2319 13.3764 13.0879 13.5006C12.2402 14.2479 11.3971 15 10.5585 15.7569C9.785 16.4614 9.79127 16.4614 9.01565 15.7308C8.22125 14.9773 7.42058 14.2301 6.62618 13.4777C6.42784 13.2898 6.23368 13.127 5.92468 13.2929C5.9413 13.3586 5.96402 13.4225 5.99254 13.4839C6.60635 14.5129 7.22955 15.5378 7.83501 16.572C7.9655 16.7943 8.13878 16.8193 8.35696 16.8172C9.05219 16.8172 9.75682 16.7452 10.4447 16.8329C11.3185 16.9456 11.8018 16.6023 12.1849 15.8446C12.6202 14.9669 13.1683 14.1477 13.6746 13.2919ZM8.14192 19.5818C8.14192 20.1203 8.1534 20.6578 8.14192 21.1952C8.13461 21.4635 8.22647 21.5668 8.49788 21.5636C9.333 21.5522 10.1681 21.549 10.997 21.5636C11.3227 21.5699 11.4145 21.4394 11.4145 21.1326C11.4013 20.089 11.4013 19.0478 11.4145 18.0091C11.4145 17.6897 11.3101 17.5854 10.997 17.5916C10.1817 17.6073 9.36536 17.6104 8.55008 17.5916C8.21812 17.5843 8.13774 17.7179 8.14922 18.0216C8.16279 18.5403 8.14818 19.0621 8.14818 19.5818H8.14192ZM11.4918 13.6624C11.3274 13.3354 11.2214 12.9822 11.1786 12.6188C11.1535 12.2994 11.0325 12.3057 10.7819 12.3808C10.1643 12.57 9.50863 12.5988 8.87682 12.4643C8.17636 12.3276 8.17532 12.3255 7.9989 13.0258C7.93522 13.2794 7.75881 13.5204 8.0584 13.7772C8.57096 14.2165 9.05532 14.6924 9.54073 15.1631C9.70671 15.3238 9.83407 15.3624 10.0209 15.1882C10.4531 14.7874 10.902 14.4044 11.3415 14.0109C11.4396 13.9337 11.5544 13.8628 11.498 13.6624H11.4918Z" fill="#313555" stroke="#313555" stroke-width="0.5"/>
<path d="M17.175 6.67746V1.46562C17.175 1.41344 17.175 1.36125 17.175 1.30907C17.1854 1.03982 17.2627 0.810222 17.5852 0.821702C17.8723 0.832138 17.9882 1.05025 17.9454 1.29342C17.8493 1.85176 18.1646 2.12832 18.5633 2.42992C20.2565 3.70523 21.9278 5.00976 23.6043 6.30802C23.8047 6.46248 24.0866 6.60128 23.9749 6.92376C23.8632 7.24624 23.5699 7.19719 23.3089 7.19719H19.1918C17.9579 7.19719 17.9579 7.19719 17.9579 8.45788C17.9579 9.60447 17.9579 10.7525 17.9579 11.9018C17.9579 12.1847 17.9767 12.5176 17.5904 12.528C17.1624 12.5437 17.1729 12.1909 17.1729 11.8904C17.1729 10.1531 17.1736 8.41544 17.175 6.67746ZM22.3151 6.29341C20.9507 5.24353 19.601 4.19782 18.2376 3.15628C17.9715 2.94756 17.9621 3.15628 17.9621 3.34831C17.9621 4.21765 17.9777 5.08803 17.9537 5.95736C17.9443 6.33516 18.0915 6.42804 18.4412 6.42282C19.5895 6.40717 20.7378 6.42282 21.8861 6.41447C22.0145 6.41343 22.1616 6.46248 22.3151 6.29341Z" fill="#313555" stroke="#313555" stroke-width="0.5"/>
<path d="M9.80111 18.0476C10.0276 18.0476 10.2542 18.0372 10.4796 18.0476C10.5281 18.0456 10.5765 18.0535 10.6218 18.0707C10.6671 18.0879 10.7085 18.1142 10.7434 18.1478C10.7784 18.1815 10.8061 18.2218 10.825 18.2665C10.8439 18.3111 10.8535 18.3592 10.8534 18.4077C10.8603 18.4559 10.8567 18.505 10.8429 18.5517C10.8291 18.5984 10.8054 18.6416 10.7734 18.6784C10.7414 18.7151 10.7019 18.7445 10.6575 18.7646C10.6131 18.7847 10.5649 18.795 10.5162 18.7948C10.0308 18.8126 9.54327 18.8105 9.05473 18.7948C9.00599 18.796 8.95757 18.7868 8.9127 18.7677C8.86783 18.7487 8.82754 18.7203 8.79453 18.6844C8.76152 18.6485 8.73656 18.606 8.7213 18.5598C8.70605 18.5135 8.70085 18.4645 8.70607 18.416C8.70389 18.3675 8.71175 18.319 8.72917 18.2737C8.74659 18.2284 8.77318 18.1871 8.80728 18.1525C8.84138 18.118 8.88226 18.0908 8.92736 18.0727C8.97245 18.0547 9.02079 18.0461 9.06934 18.0476C9.31466 18.0382 9.55788 18.0487 9.80111 18.0476Z" fill="#313555" stroke="#313555" stroke-width="0.2"/>
<path d="M9.79994 19.946C9.55672 19.946 9.31349 19.9554 9.06922 19.946C9.02075 19.9475 8.9725 19.939 8.92751 19.9209C8.88252 19.9028 8.84177 19.8756 8.80783 19.841C8.77389 19.8064 8.7475 19.7651 8.73032 19.7198C8.71314 19.6744 8.70555 19.626 8.70803 19.5776C8.7028 19.5292 8.70799 19.4802 8.72325 19.434C8.73852 19.3878 8.7635 19.3453 8.79653 19.3095C8.82955 19.2738 8.86986 19.2455 8.91473 19.2265C8.9596 19.2076 9.00801 19.1985 9.05669 19.1998C9.52575 19.1873 9.9948 19.1873 10.4639 19.1998C10.7071 19.205 10.8595 19.3438 10.8511 19.5954C10.8428 19.8197 10.6946 19.9397 10.4764 19.9512C10.2582 19.9627 10.0265 19.9471 9.79994 19.946Z" fill="#313555" stroke="#313555" stroke-width="0.2"/>
<path d="M9.76126 21.0887C9.53682 21.0887 9.31134 21.0887 9.08586 21.0887C9.03769 21.0921 8.98936 21.0854 8.94391 21.0691C8.89845 21.0528 8.85686 21.0273 8.82175 20.9942C8.78665 20.961 8.75878 20.921 8.73992 20.8766C8.72106 20.8321 8.7116 20.7843 8.71215 20.736C8.70451 20.6881 8.70747 20.6391 8.72083 20.5924C8.73419 20.5458 8.75762 20.5026 8.78947 20.466C8.82132 20.4294 8.86081 20.4002 8.90517 20.3805C8.94952 20.3608 8.99766 20.351 9.04619 20.352C9.53056 20.3384 10.017 20.3394 10.5014 20.352C10.5498 20.3497 10.5982 20.358 10.6432 20.3762C10.6881 20.3944 10.7287 20.422 10.762 20.4573C10.7953 20.4926 10.8205 20.5346 10.8361 20.5806C10.8517 20.6265 10.8571 20.6752 10.8521 20.7235C10.8543 20.7717 10.8465 20.8198 10.8291 20.8648C10.8117 20.9098 10.7851 20.9507 10.751 20.9848C10.717 21.019 10.6761 21.0457 10.6312 21.0632C10.5862 21.0808 10.5381 21.0887 10.4899 21.0867C10.2477 21.0992 10.0045 21.0867 9.75917 21.0867L9.76126 21.0887Z" fill="#313555" stroke="#313555" stroke-width="0.2"/>
</g>
<defs>
<clipPath id="clip0_78_460">
<rect width="24" height="24" fill="white"/>
</clipPath>
</defs>
</svg>
