<svg width="198" height="26" viewBox="0 0 198 26" fill="none" xmlns="http://www.w3.org/2000/svg">
<path d="M13.16 26H0.8C0.533333 26 0.4 25.84 0.4 25.52V0.759998C0.4 0.439999 0.533333 0.28 0.8 0.28H13.16C13.48 0.28 13.64 0.426666 13.64 0.719999V1.64C13.64 1.93333 13.48 2.08 13.16 2.08H2.8C2.53333 2.08 2.4 2.2 2.4 2.44V11.64C2.4 11.88 2.53333 12 2.8 12H12.04C12.3333 12 12.48 12.1467 12.48 12.44V13.36C12.48 13.6533 12.3333 13.8 12.04 13.8H2.8C2.53333 13.8 2.4 13.92 2.4 14.16V23.84C2.4 24.08 2.53333 24.2 2.8 24.2H13.16C13.48 24.2 13.64 24.3467 13.64 24.64V25.56C13.64 25.8533 13.48 26 13.16 26ZM19.0178 26H17.5378C17.1911 26 17.1245 25.84 17.3378 25.52L23.1378 15.6L17.6178 6.08C17.4045 5.76 17.4711 5.6 17.8178 5.6H19.2578C19.5511 5.6 19.7778 5.76 19.9378 6.08L24.4578 14.24H24.6178L28.9378 6.08C29.1245 5.76 29.3511 5.6 29.6178 5.6H31.0578C31.4045 5.6 31.4711 5.76 31.2578 6.08L25.8578 15.52L31.7378 25.52C31.9245 25.84 31.8578 26 31.5378 26H29.9378C29.7245 26 29.5378 25.84 29.3778 25.52L24.6178 16.96H24.4578L19.6978 25.52C19.5111 25.84 19.2845 26 19.0178 26ZM36.6613 7.4H34.2213C33.9279 7.4 33.7813 7.26667 33.7813 7V6.04C33.7813 5.74667 33.9279 5.6 34.2213 5.6H36.6613C36.9013 5.6 37.0213 5.48 37.0213 5.24V2C37.0213 1.68 37.1679 1.52 37.4613 1.52H38.6213C38.9146 1.52 39.0613 1.68 39.0613 2V5.24C39.0613 5.48 39.1813 5.6 39.4213 5.6H44.1813C44.4746 5.6 44.6213 5.74667 44.6213 6.04V7C44.6213 7.26667 44.4746 7.4 44.1813 7.4H39.4213C39.1813 7.4 39.0613 7.52 39.0613 7.76V20.36C39.0613 21.5867 39.4079 22.5333 40.1013 23.2C40.7946 23.8667 41.7679 24.2 43.0213 24.2H44.5813C44.8746 24.2 45.0213 24.3467 45.0213 24.64V25.56C45.0213 25.8533 44.8746 26 44.5813 26H42.8613C41.1013 26 39.6879 25.5067 38.6213 24.52C37.5546 23.5333 37.0213 22.1733 37.0213 20.44V7.76C37.0213 7.52 36.9013 7.4 36.6613 7.4ZM51.2084 26H50.0484C49.7818 26 49.6484 25.84 49.6484 25.52V6.08C49.6484 5.76 49.7818 5.6 50.0484 5.6H51.2084C51.5018 5.6 51.6484 5.76 51.6484 6.08V7.76H51.8084C52.1018 7.2 52.6218 6.70667 53.3684 6.28C54.1151 5.82666 55.0351 5.6 56.1284 5.6H57.6884C57.9818 5.6 58.1284 5.74667 58.1284 6.04V7C58.1284 7.29333 57.9818 7.42667 57.6884 7.4H55.8084C54.5018 7.4 53.4751 7.8 52.7284 8.6C52.0084 9.4 51.6484 10.48 51.6484 11.84V25.52C51.6484 25.84 51.5018 26 51.2084 26ZM75.7475 26H67.3875C65.6542 26 64.2808 25.4933 63.2675 24.48C62.2808 23.4667 61.7875 22.08 61.7875 20.32V11.28C61.7875 9.52 62.2808 8.13333 63.2675 7.12C64.2808 6.10666 65.6542 5.6 67.3875 5.6H70.8275C72.5608 5.6 73.9342 6.10666 74.9475 7.12C75.9608 8.13333 76.4675 9.52 76.4675 11.28V16.36C76.4675 16.68 76.3075 16.84 75.9875 16.84H64.1475C63.9075 16.84 63.7875 16.96 63.7875 17.2V20.28C63.7875 21.5333 64.1075 22.5067 64.7475 23.2C65.3875 23.8667 66.3208 24.2 67.5475 24.2H75.7475C76.0408 24.2 76.1875 24.3467 76.1875 24.64V25.56C76.1875 25.8533 76.0408 26 75.7475 26ZM64.1475 15.24H74.1075C74.3475 15.24 74.4675 15.12 74.4675 14.88V11.32C74.4675 10.0667 74.1475 9.10667 73.5075 8.44C72.8675 7.74667 71.9342 7.4 70.7075 7.4H67.5475C66.3208 7.4 65.3875 7.74667 64.7475 8.44C64.1075 9.10667 63.7875 10.0667 63.7875 11.32V14.88C63.7875 15.12 63.9075 15.24 64.1475 15.24ZM83.435 26H82.275C82.0083 26 81.875 25.84 81.875 25.52V6.08C81.875 5.76 82.0083 5.6 82.275 5.6H83.435C83.7283 5.6 83.875 5.76 83.875 6.08V7.68H84.035C84.8083 6.29333 86.2217 5.6 88.275 5.6H89.915C92.2617 5.6 93.8883 6.53333 94.795 8.4C95.195 7.46667 95.875 6.77333 96.835 6.32C97.795 5.84 98.7817 5.6 99.795 5.6H101.275C103.008 5.6 104.368 6.10666 105.355 7.12C106.342 8.13333 106.835 9.52 106.835 11.28V25.52C106.835 25.84 106.688 26 106.395 26H105.235C104.942 26 104.795 25.84 104.795 25.52V11.36C104.795 10.08 104.475 9.10667 103.835 8.44C103.195 7.74667 102.262 7.4 101.035 7.4H99.555C98.275 7.4 97.2617 7.77333 96.515 8.52C95.7683 9.24 95.395 10.2267 95.395 11.48V25.52C95.395 25.84 95.2483 26 94.955 26H93.795C93.5017 26 93.355 25.84 93.355 25.52V11.36C93.355 10.08 93.035 9.10667 92.395 8.44C91.755 7.74667 90.8217 7.4 89.595 7.4H87.995C86.715 7.4 85.7017 7.74667 84.955 8.44C84.235 9.10667 83.875 10.0667 83.875 11.32V25.52C83.875 25.84 83.7283 26 83.435 26ZM126.177 26H117.817C116.084 26 114.711 25.4933 113.697 24.48C112.711 23.4667 112.217 22.08 112.217 20.32V11.28C112.217 9.52 112.711 8.13333 113.697 7.12C114.711 6.10666 116.084 5.6 117.817 5.6H121.257C122.991 5.6 124.364 6.10666 125.377 7.12C126.391 8.13333 126.897 9.52 126.897 11.28V16.36C126.897 16.68 126.737 16.84 126.417 16.84H114.577C114.337 16.84 114.217 16.96 114.217 17.2V20.28C114.217 21.5333 114.537 22.5067 115.177 23.2C115.817 23.8667 116.751 24.2 117.977 24.2H126.177C126.471 24.2 126.617 24.3467 126.617 24.64V25.56C126.617 25.8533 126.471 26 126.177 26ZM114.577 15.24H124.537C124.777 15.24 124.897 15.12 124.897 14.88V11.32C124.897 10.0667 124.577 9.10667 123.937 8.44C123.297 7.74667 122.364 7.4 121.137 7.4H117.977C116.751 7.4 115.817 7.74667 115.177 8.44C114.537 9.10667 114.217 10.0667 114.217 11.32V14.88C114.217 15.12 114.337 15.24 114.577 15.24ZM138.305 26H137.145C136.851 26 136.705 25.84 136.705 25.52V2.44C136.705 2.2 136.571 2.08 136.305 2.08H130.505C130.185 2.08 130.025 1.93333 130.025 1.64V0.719999C130.025 0.426666 130.185 0.28 130.505 0.28H144.905C145.225 0.28 145.385 0.426666 145.385 0.719999V1.64C145.385 1.93333 145.225 2.08 144.905 2.08H139.105C138.838 2.08 138.705 2.2 138.705 2.44V25.52C138.705 25.84 138.571 26 138.305 26ZM157.742 26H154.302C152.568 26 151.195 25.4933 150.182 24.48C149.195 23.4667 148.702 22.08 148.702 20.32V11.28C148.702 9.52 149.195 8.13333 150.182 7.12C151.195 6.10666 152.568 5.6 154.302 5.6H157.742C159.475 5.6 160.848 6.10666 161.862 7.12C162.875 8.13333 163.382 9.52 163.382 11.28V20.32C163.382 22.08 162.875 23.4667 161.862 24.48C160.848 25.4933 159.475 26 157.742 26ZM154.462 24.2H157.582C158.808 24.2 159.742 23.8667 160.382 23.2C161.048 22.5067 161.382 21.5333 161.382 20.28V11.32C161.382 10.0667 161.048 9.10667 160.382 8.44C159.742 7.74667 158.808 7.4 157.582 7.4H154.462C153.235 7.4 152.302 7.74667 151.662 8.44C151.022 9.10667 150.702 10.0667 150.702 11.32V20.28C150.702 21.5333 151.022 22.5067 151.662 23.2C152.302 23.8667 153.235 24.2 154.462 24.2ZM176.905 26H174.265C172.559 26 171.212 25.4933 170.225 24.48C169.239 23.4667 168.745 22.08 168.745 20.32V6.08C168.745 5.76 168.879 5.6 169.145 5.6H170.305C170.599 5.6 170.745 5.76 170.745 6.08V20.24C170.745 21.4933 171.065 22.4667 171.705 23.16C172.345 23.8533 173.279 24.2 174.505 24.2H177.105C178.385 24.2 179.385 23.8667 180.105 23.2C180.852 22.5067 181.225 21.5333 181.225 20.28V6.08C181.225 5.76 181.372 5.6 181.665 5.6H182.825C183.092 5.6 183.225 5.76 183.225 6.08V25.52C183.225 25.84 183.092 26 182.825 26H181.665C181.372 26 181.225 25.84 181.225 25.52V23.92H181.065C180.372 25.3067 178.985 26 176.905 26ZM190.779 26H189.619C189.352 26 189.219 25.84 189.219 25.52V6.08C189.219 5.76 189.352 5.6 189.619 5.6H190.779C191.072 5.6 191.219 5.76 191.219 6.08V7.76H191.379C191.672 7.2 192.192 6.70667 192.939 6.28C193.685 5.82666 194.605 5.6 195.699 5.6H197.259C197.552 5.6 197.699 5.74667 197.699 6.04V7C197.699 7.29333 197.552 7.42667 197.259 7.4H195.379C194.072 7.4 193.045 7.8 192.299 8.6C191.579 9.4 191.219 10.48 191.219 11.84V25.52C191.219 25.84 191.072 26 190.779 26Z" fill="white"/>
</svg>
