<svg width="26" height="26" viewBox="0 0 26 26" fill="none" xmlns="http://www.w3.org/2000/svg">
<path d="M11.514 9.02938C11.514 10.0599 12.3495 10.8955 13.3801 10.8955C14.4106 10.8955 15.2461 10.0599 15.2461 9.02938C15.2461 7.99882 14.4106 7.16336 13.3801 7.16336C12.3495 7.16336 11.514 7.99882 11.514 9.02938Z" fill="white"/>
<path fill-rule="evenodd" clip-rule="evenodd" d="M13.3035 25.7039C20.207 25.7039 25.8035 20.1074 25.8035 13.2039C25.8035 6.3003 20.207 0.703857 13.3035 0.703857C6.3999 0.703857 0.803467 6.3003 0.803467 13.2039C0.803467 20.1074 6.3999 25.7039 13.3035 25.7039ZM8.86597 9.02931C8.86597 6.53629 10.887 4.51523 13.3801 4.51523C15.8732 4.51523 17.8941 6.53629 17.8941 9.02931C17.8941 11.5224 15.8732 13.5436 13.3801 13.5436C10.887 13.5436 8.86597 11.5224 8.86597 9.02931ZM17.9211 15.8656C17.8638 15.9115 16.7809 16.7673 14.9737 17.1354L17.7015 19.839C18.1813 20.3179 18.1818 21.0951 17.7029 21.5748C17.2239 22.0544 16.447 22.0552 15.9671 21.5761L13.3188 18.9972L10.9134 21.5595C10.6726 21.8093 10.3514 21.935 10.0298 21.935C9.72305 21.935 9.41608 21.8208 9.1779 21.5912C8.6899 21.1206 8.67577 20.3436 9.14629 19.8557L11.7355 17.1497C9.87771 16.7902 8.75005 15.9121 8.69198 15.8656C8.16317 15.4415 8.07823 14.669 8.50232 14.1401C8.92635 13.6113 9.69877 13.5263 10.2277 13.9504C10.2389 13.9594 11.4183 14.8455 13.3187 14.8467C15.2192 14.8455 16.3742 13.9594 16.3854 13.9504C16.9143 13.5263 17.6867 13.6113 18.1108 14.1401C18.5349 14.669 18.4499 15.4415 17.9211 15.8656Z" fill="white"/>
</svg>
