<svg width="54" height="54" viewBox="0 0 54 54" fill="none" xmlns="http://www.w3.org/2000/svg">
<path d="M40.8521 9.95334L3.52874 47.3686L1.26709 52.8438L6.74223 50.5821L44.1575 13.2587L40.8521 9.95334ZM48.3201 2.48674L46.7031 4.1024L50.0084 7.40778L51.6255 5.79075C52.0498 5.36615 52.2881 4.79044 52.2881 4.19018C52.2881 3.58992 52.0498 3.01421 51.6255 2.58961L51.5226 2.48674C51.3123 2.27645 51.0627 2.10963 50.788 1.99582C50.5132 1.882 50.2187 1.82343 49.9214 1.82343C49.624 1.82343 49.3295 1.882 49.0547 1.99582C48.78 2.10963 48.5304 2.27645 48.3201 2.48674Z" stroke="white" stroke-width="2.0625" stroke-linecap="round" stroke-linejoin="round"/>
</svg>
