<svg width="26" height="26" viewBox="0 0 26 26" fill="none" xmlns="http://www.w3.org/2000/svg">
<g clip-path="url(#clip0_2_146)">
<path d="M17.9813 12.4883C17.1378 12.4883 16.4476 13.1529 16.4476 13.9965C16.4476 14.84 17.1378 15.5302 17.9558 15.5302C18.7993 15.5302 19.464 14.84 19.464 14.022C19.4895 13.1529 18.8249 12.4883 17.9813 12.4883ZM17.9813 14.7633C17.5468 14.7633 17.2145 14.431 17.2145 13.9965C17.2145 13.5619 17.5468 13.2296 17.9813 13.2296C18.4159 13.2296 18.7482 13.5875 18.7482 13.9965C18.7482 14.431 18.3903 14.7633 17.9813 14.7633Z" fill="white"/>
<path d="M8.59995 10.2898C6.58052 10.2643 4.81672 11.9514 4.86784 14.0986C4.89341 16.0925 6.55496 17.8052 8.65107 17.7796C10.6961 17.754 12.3576 16.0925 12.3576 14.0475C12.3576 11.977 10.6961 10.2898 8.59995 10.2898ZM8.65107 16.3226C7.29627 16.3737 6.19709 15.3001 6.19709 13.9964C6.19709 12.6671 7.29627 11.6446 8.52326 11.6702C9.80138 11.6702 10.8494 12.6927 10.8494 13.9964C10.875 15.3001 9.8525 16.2714 8.65107 16.3226Z" fill="white"/>
<path d="M13.3035 0.703857C6.40162 0.703857 0.803467 6.30201 0.803467 13.2038C0.803467 20.1057 6.40162 25.7038 13.3035 25.7038C20.2053 25.7038 25.8034 20.1057 25.8034 13.2038C25.8034 6.30201 20.2053 0.703857 13.3035 0.703857ZM20.4865 18.0607C19.7196 18.5464 18.876 18.7764 17.9814 18.7764C17.5979 18.7764 17.2145 18.7253 16.8566 18.6231C15.9619 18.393 15.1951 17.9329 14.556 17.2683C14.4793 17.1916 14.4026 17.0893 14.3004 16.9871C13.9681 17.4983 13.6358 17.984 13.3035 18.4953C12.9711 17.984 12.6388 17.4983 12.3065 17.0126C12.281 17.0126 12.281 17.0382 12.281 17.0382L12.2554 17.0638C11.4885 17.984 10.5172 18.5208 9.34129 18.7253C8.67667 18.8276 8.03761 18.802 7.39855 18.6231C6.50387 18.3674 5.737 17.9073 5.09794 17.1916C4.48444 16.5014 4.12657 15.709 3.9732 14.7887C3.81982 13.9452 3.99876 13.1272 4.04988 12.9227C4.20326 12.3347 4.43332 11.8235 4.79119 11.3378C4.81676 11.3122 4.81676 11.2355 4.81676 11.21C4.68894 10.6987 4.43332 10.2386 4.15213 9.77849C4.07545 9.67624 3.99876 9.57399 3.92207 9.44618V9.42062C3.94764 9.42062 3.94764 9.42062 3.9732 9.42062C4.919 9.42062 5.86481 9.42062 6.81062 9.42062C6.86174 9.42062 6.88731 9.39506 6.93843 9.36949C7.60305 8.93493 8.3188 8.60262 9.0601 8.347C9.59691 8.16806 10.1337 8.01469 10.6961 7.91244C11.2329 7.81019 11.7697 7.7335 12.3321 7.70794C13.6613 7.60569 14.7349 7.7335 15.4507 7.83575C15.9875 7.91244 16.4987 8.04025 17.01 8.19362C17.9047 8.47481 18.7227 8.85825 19.5151 9.34393C19.5662 9.36949 19.6429 9.39505 19.7196 9.39505C20.6398 9.39505 21.5601 9.39505 22.4803 9.39505C22.557 9.39505 22.6337 9.39505 22.7104 9.39505C22.7104 9.42062 22.7104 9.42062 22.7104 9.42062C22.6593 9.4973 22.6337 9.54843 22.5826 9.62512C22.2758 10.1108 21.9947 10.5965 21.8413 11.1589C21.8157 11.21 21.8157 11.2611 21.8668 11.3378C22.6848 12.5137 22.9405 13.8173 22.6081 15.2233C22.2503 16.4247 21.5601 17.3705 20.4865 18.0607Z" fill="white"/>
<path d="M8.52329 12.4883C7.70529 12.4883 7.01511 13.1785 7.01511 13.9965C7.01511 14.84 7.70529 15.5046 8.54885 15.5046C9.36684 15.5046 10.057 14.8145 10.057 13.9709C10.057 13.1529 9.3924 12.4883 8.52329 12.4883ZM8.54885 14.7889C8.11429 14.7889 7.75641 14.4566 7.75641 13.9965C7.75641 13.5619 8.08873 13.2296 8.52329 13.2296C8.95784 13.2296 9.29015 13.5619 9.31572 13.9965C9.34128 14.431 8.98341 14.7633 8.54885 14.7889Z" fill="white"/>
<path d="M17.9047 10.3154C15.8597 10.3665 14.2493 12.0025 14.2237 14.0475C14.2237 16.118 15.9108 17.8307 17.9814 17.8051C20.0519 17.8051 21.739 16.1436 21.739 14.0475C21.739 11.9002 19.9752 10.2643 17.9047 10.3154ZM18.0836 16.3225C16.7288 16.3737 15.6552 15.3 15.6552 13.9964C15.6552 12.6671 16.7544 11.6446 17.9814 11.6702C19.2595 11.6702 20.3075 12.6927 20.3075 13.9964C20.3075 15.2745 19.285 16.2714 18.0836 16.3225Z" fill="white"/>
<path d="M14.7861 10.5711C15.604 9.80421 16.601 9.42078 17.7257 9.31853C16.3965 8.73059 14.9906 8.47497 13.5335 8.44941C11.8975 8.42385 10.2871 8.65391 8.7789 9.29297C9.92921 9.36965 10.9261 9.75309 11.7697 10.52C12.6133 11.2868 13.0989 12.2582 13.2779 13.3829C13.4824 12.2838 13.9681 11.338 14.7861 10.5711Z" fill="white"/>
</g>
<defs>
<clipPath id="clip0_2_146">
<rect width="25" height="25" fill="white" transform="translate(0.803467 0.703857)"/>
</clipPath>
</defs>
</svg>
