<svg width="26" height="26" viewBox="0 0 26 26" fill="none" xmlns="http://www.w3.org/2000/svg">
<path d="M13.3035 0.703857C6.40162 0.703857 0.803467 6.30201 0.803467 13.2038C0.803467 20.1057 6.40162 25.7038 13.3035 25.7038C20.2053 25.7038 25.8034 20.1057 25.8034 13.2038C25.8034 6.30201 20.2053 0.703857 13.3035 0.703857ZM19.6429 14.5586C20.2308 15.121 20.8443 15.6578 21.3556 16.2969C21.5857 16.5781 21.8157 16.8593 21.9691 17.1916C22.1992 17.6517 21.9947 18.1629 21.5857 18.1885H19.0294C18.3648 18.2396 17.8536 17.984 17.3934 17.5239C17.0356 17.166 16.7032 16.7826 16.3709 16.3991C16.2431 16.2458 16.0897 16.0924 15.9108 15.9901C15.5529 15.7601 15.2462 15.8368 15.0673 16.1946C14.8628 16.5781 14.8116 16.9871 14.7861 17.3961C14.7605 18.0096 14.5816 18.1629 13.9681 18.1885C12.6644 18.2396 11.4374 18.0607 10.3127 17.3961C9.31573 16.8081 8.5233 16.0157 7.85867 15.0955C6.52943 13.3061 5.5325 11.3378 4.61226 9.31837C4.40776 8.85825 4.56113 8.62818 5.07238 8.60262C5.91594 8.57706 6.73393 8.57706 7.57749 8.60262C7.9098 8.60262 8.13986 8.80712 8.26767 9.11387C8.72779 10.2131 9.2646 11.2867 9.95479 12.258C10.1337 12.5137 10.3382 12.7693 10.5938 12.9738C10.9006 13.1783 11.1051 13.1016 11.2585 12.7693C11.3352 12.5648 11.3863 12.3347 11.4118 12.1047C11.4885 11.3378 11.4885 10.5709 11.3607 9.80405C11.284 9.29281 11.0284 8.98606 10.5427 8.88381C10.2871 8.83268 10.3382 8.756 10.4405 8.60262C10.645 8.37256 10.8495 8.21919 11.2329 8.21919H14.1214C14.5816 8.32144 14.6838 8.50037 14.7349 8.96049V12.1814C14.7349 12.3603 14.8116 12.8971 15.1439 12.9993C15.3996 13.076 15.5785 12.8715 15.7319 12.7182C16.4221 11.9769 16.9077 11.1077 17.3679 10.2131C17.5724 9.80405 17.7257 9.39506 17.9047 8.98606C18.0325 8.67931 18.2114 8.52594 18.5693 8.52594H21.3556C21.4323 8.52594 21.509 8.52594 21.6112 8.5515C22.0713 8.62818 22.1991 8.83268 22.0713 9.29281C21.8413 10.0086 21.4067 10.622 20.9722 11.21C20.512 11.849 20.0008 12.4625 19.5407 13.1272C19.0805 13.7407 19.1061 14.0474 19.6429 14.5586Z" fill="white"/>
</svg>
